PathFileType	4	(X/Y/Z)	C:\Users\WrightLab\Desktop\Jo\P5V210.trc
DataRate	CameraRate	NumFrames	NumMarkers	Units	OrigDataRate	OrigDataStartFrame	OrigNumFrames
100.00	100.00	       9	19	mm	100.00	627	       716
Frame#	Time	Headset_Front			Headset_Back			Headset_Left			Headset_Right			Left_Shoulder			Right_Shoulder			Sternum			C7			Left Elbow			Right Elbow			Left Wrist			Right Wrist			Left ASIS			Right ASIS			S2			Left Knee			Right Knee			Left Ankle			Right Ankle			
		X1	Y1	Z1	X2	Y2	Z2	X3	Y3	Z3	X4	Y4	Z4	X5	Y5	Z5	X6	Y6	Z6	X7	Y7	Z7	X8	Y8	Z8	X9	Y9	Z9	X10	Y10	Z10	X11	Y11	Z11	X12	Y12	Z12	X13	Y13	Z13	X14	Y14	Z14	X15	Y15	Z15	X16	Y16	Z16	X17	Y17	Z17	X18	Y18	Z18	X19	Y19	Z19	

627	6.260	-0.16989	1468.02271	-79.61301				-12.66422	1602.08362	-241.70276	-103.97773	1566.78845	-29.97996	-114.01698	1513.10583	-415.54822				-136.64455	1308.16064	-210.77054	-310.46814	1539.51257	-257.46799	-89.90856	1222.62781	-502.24249	-178.88194	1224.24048	100.84143	-17.92513	993.13190	-423.17557	40.56137	1122.45996	161.79500	-86.28395	934.26385	-323.27728	-227.06686	942.01172	-80.91498	-365.65970	995.68207	-363.82596	-76.41992	500.59192	-353.00558	-349.05347	496.08539	-86.08144	-131.00238	86.35578	-336.77393	-402.58673	98.33550	-173.54788	
628	6.270	-1.71018	1469.38110	-78.67274				-14.63273	1602.76160	-241.15594	-106.79919	1568.45789	-29.96280	-115.55350	1513.09802	-414.94894				-138.63533	1307.96326	-210.50114	-312.18054	1539.66040	-258.13690	-91.42937	1222.91980	-501.54419	-182.76665	1224.60107	100.86669	-20.42330	992.85114	-421.83215	36.95779	1123.45569	162.76567	-87.97854	934.36499	-323.16812	-229.20482	942.19165	-80.18221	-366.76419	995.67303	-364.60965	-76.99510	501.39935	-351.96631	-349.94000	496.04468	-85.39996	-131.09634	86.65224	-336.82819	-402.74887	98.09196	-173.83270	
629	6.280	-4.16283	1471.14282	-77.08312				-16.59604	1604.05908	-240.29022	-108.27471	1569.38635	-30.13267	-117.70719	1511.85828	-414.91489				-140.77472	1308.22571	-210.30656	-313.64862	1539.32996	-257.37253	-92.51352	1222.55017	-500.84781	-186.17653	1224.27393	100.93617	-20.94199	992.85046	-421.32947	33.08362	1123.65881	163.24216	-89.68991	934.45886	-322.76950	-230.93826	941.82874	-80.30599	-367.84158	995.73297	-364.74158	-77.64080	502.01041	-350.10544	-351.29300	495.72925	-85.43741	-131.03101	86.74442	-336.79114	-402.94565	97.82088	-173.97592	
630	6.290	-5.60966	1473.18896	-76.15630				-18.41750	1604.80530	-239.86256	-111.61486	1571.00464	-29.29707	-118.69758	1512.65222	-414.83133				-142.83514	1308.15845	-210.16667	-315.75131	1539.48560	-258.71494	-93.65867	1222.28381	-501.16333	-189.92107	1223.92908	101.52825	-22.05582	992.61591	-421.49966	29.45903	1124.12585	163.73401	-90.92830	934.12054	-322.74277	-232.69260	942.57416	-79.20268	-368.88513	996.05963	-365.16589	-78.46748	502.72269	-349.54935	-351.68512	495.68802	-85.00131	-130.92307	87.13496	-337.03497	-403.05801	97.61974	-173.66167	
631	6.300	-6.89278	1474.94763	-75.47533				-20.41574	1605.89343	-239.39822	-113.54119	1572.12610	-29.46134	-120.74522	1511.76001	-414.62671				-144.24432	1307.98157	-209.64812	-317.34995	1539.25757	-258.93103	-94.30849	1222.20435	-500.82324	-193.75946	1223.58801	101.69888	-23.18339	992.89801	-421.33157	25.50108	1124.24890	164.66704	-92.83616	934.13177	-323.82828	-235.18254	941.73193	-78.96036	-370.00400	996.22479	-366.68427	-79.19036	503.31534	-348.52612	-352.78397	495.31326	-84.06834	-130.36674	87.70065	-336.78995	-403.28433	97.31146	-173.73793	
632	6.310	-8.87647	1476.24988	-73.47179				-22.31822	1606.54846	-239.43266	-116.66354	1573.46069	-28.82187	-121.25492	1512.41870	-414.20975				-146.11215	1307.62695	-209.74120	-318.89410	1538.81079	-258.34760	-95.21896	1222.16394	-500.60349	-197.71265	1223.07581	101.94360	-25.60745	992.79803	-420.01691	21.56379	1124.19189	165.37798	-93.89240	934.10583	-324.37512	-236.83310	941.49695	-78.31174	-371.29547	995.89435	-367.39056	-79.55115	504.16156	-347.42905	-353.73825	495.15790	-84.30170	-129.96805	88.68130	-336.59430	-403.43872	97.00536	-173.71843	
633	6.320	-10.21118	1478.05542	-72.54047				-24.12360	1606.90784	-238.65327	-118.33111	1574.61914	-29.03218	-122.60821	1512.17053	-413.43967				-148.13457	1307.49536	-209.51891	-320.27109	1538.70410	-258.62088	-97.50800	1221.08801	-499.52780	-202.02199	1222.45996	102.36484	-26.28195	993.55188	-419.94724	17.38660	1124.41650	166.09334	-95.26907	933.82379	-325.33466	-237.78323	940.69098	-77.61163	-372.46158	996.06421	-368.33267	-81.22686	504.32791	-346.92026	-355.07684	494.65219	-83.84409	-129.60461	88.92632	-336.64917	-403.49637	96.86703	-173.76355	
634	6.330	-12.46664	1479.36670	-71.52859				-26.03390	1607.43933	-238.90712	-121.43287	1575.92688	-28.85854	-123.56331	1511.89648	-412.96619				-150.01201	1307.25757	-209.45384	-322.19623	1538.69238	-258.97540	-98.19569	1221.26733	-499.76575	-206.13113	1221.68994	102.75817	-27.85561	992.61682	-417.37738	12.97529	1123.93555	166.97049	-96.09410	933.75861	-326.77536	-238.47446	939.99005	-78.54366	-373.43005	996.12384	-369.01160	-81.01435	505.44653	-345.93478	-355.59146	495.84155	-81.40730	-129.42616	90.14095	-336.50638	-403.54004	96.26973	-173.74701	
635	6.340	-13.67350	1480.79333	-70.50220				-27.85369	1607.78760	-237.91624	-123.31384	1576.65894	-28.67264	-125.07769	1511.32483	-413.57492				-151.28535	1306.69312	-209.31805	-323.59555	1538.04370	-258.95776	-98.69479	1221.04919	-499.60056	-210.53671	1221.28149	102.92551	-28.87722	992.59906	-417.09070	8.58498	1123.78064	167.61543	-96.84228	933.55450	-328.20108	-240.50639	939.43671	-78.28120	-374.45734	996.09766	-369.72879	-81.32262	506.23782	-344.76495	-356.66498	495.68301	-80.80164	-129.14247	90.66058	-336.53879	-403.58755	96.10128	-173.80269	
